<svg width="465" height="479" viewBox="0 0 465 479" version="1.1" xmlns="http://www.w3.org/2000/svg" xmlns:xlink="http://www.w3.org/1999/xlink">
<title>studio KOS logo</title>
<desc>Created using Figma</desc>
<g id="Canvas" transform="translate(276 275)">
<g id="Star">
<g id="Star">
<use xlink:href="#path0_fill" transform="translate(-276 -275)" fill="#F9B000"/>
</g>
</g>
<g id="Star">
<g id="Star">
<g id="Star">
<use xlink:href="#path1_fill" transform="translate(-261 -260)" fill="#FFFFFF"/>
</g>
</g>
</g>
<g id="Star">
<g id="Star">
<g id="Star">
<g id="Star">
<use xlink:href="#path2_fill" transform="translate(-249 -247)" fill="#F9B000"/>
</g>
</g>
</g>
<g id="studio">
<use xlink:href="#path3_fill" transform="translate(-197 -136)" fill="#FFFFFF"/>
</g>
<g id="KOS">
<use xlink:href="#path4_fill" transform="translate(-180 -57)" fill="#FFFFFF"/>
</g>
</g>
</g>
<defs>
<path id="path0_fill" d="M 232.5 0L 433.851 119.75L 433.851 359.25L 232.5 479L 31.1491 359.25L 31.1491 119.75L 232.5 0Z"/>
<path id="path1_fill" d="M 217.5 0L 405.861 112L 405.861 336L 217.5 448L 29.1395 336L 29.1395 112L 217.5 0Z"/>
<path id="path2_fill" d="M 205.5 0L 383.468 105.75L 383.468 317.25L 205.5 423L 27.5318 317.25L 27.5318 105.75L 205.5 0Z"/>
<path id="path3_fill" d="M 37.063 67.0884C 37.063 66.1753 36.8831 65.359 36.5234 64.6396C 36.1637 63.8926 35.555 63.2147 34.6973 62.606C 33.8395 61.9972 32.7051 61.4438 31.2939 60.9458C 29.8828 60.4201 28.1258 59.9497 26.0229 59.5347C 23.4497 59.009 21.0978 58.3726 18.9673 57.6255C 16.8644 56.8784 15.0521 55.993 13.5303 54.9692C 12.0361 53.9178 10.874 52.7004 10.0439 51.3169C 9.21387 49.9058 8.79883 48.2733 8.79883 46.4194C 8.79883 44.5933 9.2277 42.8916 10.0854 41.3145C 10.9432 39.7096 12.1468 38.3123 13.6963 37.1226C 15.2458 35.9328 17.0858 34.992 19.2163 34.3003C 21.3745 33.6086 23.7402 33.2627 26.3135 33.2627C 29.0804 33.2627 31.5706 33.6224 33.7842 34.3418C 35.9977 35.0612 37.8792 36.0573 39.4287 37.3301C 40.9782 38.6029 42.168 40.097 42.998 41.8125C 43.8558 43.5003 44.2847 45.3265 44.2847 47.291L 36.6064 47.291C 36.6064 46.3226 36.3574 45.3818 35.8594 44.4688C 35.3613 43.528 34.6696 42.6979 33.7842 41.9785C 32.8988 41.2591 31.8197 40.6781 30.5469 40.2354C 29.3018 39.7926 27.8906 39.5713 26.3135 39.5713C 24.681 39.5713 23.2422 39.7511 21.9971 40.1108C 20.7796 40.4705 19.7559 40.9548 18.9258 41.5635C 18.1234 42.1722 17.5146 42.8778 17.0996 43.6802C 16.6846 44.4826 16.4771 45.3127 16.4771 46.1704C 16.4771 47.0558 16.6431 47.8444 16.9751 48.5361C 17.3071 49.2279 17.8743 49.8504 18.6768 50.4038C 19.5068 50.9572 20.5998 51.4552 21.9556 51.8979C 23.339 52.3407 25.0822 52.7695 27.1851 53.1846C 29.952 53.7656 32.4284 54.4435 34.6143 55.2183C 36.8001 55.9653 38.6401 56.8784 40.1343 57.9575C 41.6284 59.009 42.7629 60.2402 43.5376 61.6514C 44.34 63.0625 44.7412 64.695 44.7412 66.5488C 44.7412 68.541 44.2847 70.3534 43.3716 71.9858C 42.4862 73.6183 41.241 75.0156 39.6362 76.1777C 38.0314 77.3398 36.1084 78.2391 33.8672 78.8755C 31.626 79.5119 29.1772 79.8301 26.521 79.8301C 23.4774 79.8301 20.7658 79.4289 18.3862 78.6265C 16.0067 77.7964 13.9868 76.7173 12.3267 75.3892C 10.6942 74.0334 9.43522 72.4701 8.5498 70.6992C 7.69206 68.9284 7.26318 67.0884 7.26318 65.1792L 14.9414 65.1792C 15.0521 66.7563 15.4671 68.0845 16.1865 69.1636C 16.9336 70.2427 17.8467 71.1143 18.9258 71.7783C 20.0326 72.4424 21.25 72.9128 22.5781 73.1895C 23.9062 73.4661 25.2205 73.6045 26.521 73.6045C 29.7583 73.6045 32.3177 73.0096 34.1992 71.8198C 36.0807 70.63 37.0353 69.0529 37.063 67.0884ZM 76.4502 23.2188L 76.4502 34.0928L 93.5498 34.0928L 93.5498 40.0278L 76.4502 40.0278L 76.4502 64.4321C 76.4502 66.1753 76.6715 67.6141 77.1143 68.7485C 77.557 69.883 78.1657 70.7961 78.9404 71.4878C 79.7152 72.1519 80.6006 72.6222 81.5967 72.8989C 82.6204 73.1756 83.6995 73.314 84.834 73.314C 85.6641 73.314 86.5218 73.2725 87.4072 73.1895C 88.2926 73.0788 89.1504 72.9543 89.9805 72.8159C 90.8382 72.6776 91.6268 72.5392 92.3462 72.4009C 93.0933 72.2349 93.702 72.0965 94.1724 71.9858L 95.2515 77.4229C 94.6151 77.8102 93.8403 78.1561 92.9272 78.4604C 92.0142 78.7371 91.0181 78.9723 89.939 79.166C 88.8599 79.3874 87.7116 79.5534 86.4941 79.6641C 85.3044 79.7747 84.1146 79.8301 82.9248 79.8301C 80.9326 79.8301 79.0649 79.5534 77.3218 79C 75.6063 78.4189 74.1121 77.5197 72.8394 76.3022C 71.5666 75.0571 70.5566 73.4661 69.8096 71.5293C 69.0902 69.5648 68.7305 67.1991 68.7305 64.4321L 68.7305 40.0278L 56.9434 40.0278L 56.9434 34.0928L 68.7305 34.0928L 68.7305 23.2188L 76.4502 23.2188ZM 138.457 72.8159C 136.963 75.0295 135.095 76.7588 132.854 78.0039C 130.613 79.2214 128.026 79.8301 125.093 79.8301C 122.741 79.8301 120.61 79.4704 118.701 78.751C 116.792 78.0039 115.16 76.8556 113.804 75.3062C 112.448 73.7567 111.396 71.7922 110.649 69.4126C 109.93 67.0054 109.57 64.1278 109.57 60.7798L 109.57 34.0928L 117.249 34.0928L 117.249 60.8628C 117.249 63.2977 117.442 65.3175 117.83 66.9224C 118.217 68.5272 118.798 69.8138 119.573 70.7822C 120.347 71.723 121.288 72.387 122.395 72.7744C 123.529 73.1618 124.83 73.3555 126.296 73.3555C 129.423 73.3555 131.941 72.7191 133.85 71.4463C 135.787 70.1735 137.226 68.458 138.167 66.2998L 138.167 34.0928L 145.886 34.0928L 145.886 79L 138.914 79L 138.457 72.8159ZM 158.918 56.1729C 158.918 52.8249 159.333 49.7536 160.164 46.959C 161.021 44.1367 162.225 41.7157 163.774 39.6958C 165.352 37.6759 167.247 36.0988 169.46 34.9644C 171.674 33.8299 174.15 33.2627 176.89 33.2627C 179.574 33.2627 181.912 33.7192 183.904 34.6323C 185.924 35.5177 187.667 36.8182 189.133 38.5337L 189.133 15.25L 196.812 15.25L 196.812 79L 189.756 79L 189.424 74.2686C 187.93 76.0947 186.145 77.4782 184.07 78.4189C 181.995 79.3597 179.574 79.8301 176.807 79.8301C 174.095 79.8301 171.632 79.249 169.419 78.0869C 167.233 76.9248 165.365 75.32 163.816 73.2725C 162.266 71.2249 161.063 68.8177 160.205 66.0508C 159.347 63.2562 158.918 60.2541 158.918 57.0444L 158.918 56.1729ZM 166.597 57.0444C 166.597 59.2303 166.832 61.3055 167.302 63.27C 167.773 65.2345 168.492 66.9639 169.46 68.458C 170.457 69.9521 171.715 71.1419 173.237 72.0273C 174.759 72.8851 176.585 73.314 178.716 73.314C 180.016 73.314 181.192 73.1618 182.244 72.8574C 183.295 72.5531 184.25 72.1242 185.107 71.5708C 185.965 70.9897 186.726 70.3118 187.39 69.5371C 188.054 68.7347 188.635 67.8493 189.133 66.8809L 189.133 46.0459C 188.137 44.2197 186.795 42.7256 185.107 41.5635C 183.42 40.3737 181.317 39.7788 178.799 39.7788C 176.641 39.7788 174.787 40.2215 173.237 41.1069C 171.715 41.9924 170.457 43.196 169.46 44.7178C 168.492 46.2119 167.773 47.9551 167.302 49.9473C 166.832 51.9118 166.597 53.987 166.597 56.1729L 166.597 57.0444ZM 212.625 34.0928L 235.576 34.0928L 235.576 72.3594L 250.227 72.3594L 250.227 79L 212.625 79L 212.625 72.3594L 227.898 72.3594L 227.898 40.7749L 212.625 40.7749L 212.625 34.0928ZM 226.902 22.3057C 226.902 21.0329 227.275 19.9676 228.022 19.1099C 228.797 18.2244 229.959 17.7817 231.509 17.7817C 233.031 17.7817 234.179 18.2244 234.954 19.1099C 235.728 19.9676 236.116 21.0329 236.116 22.3057C 236.116 23.5508 235.728 24.5884 234.954 25.4185C 234.179 26.2485 233.031 26.6636 231.509 26.6636C 229.959 26.6636 228.797 26.2485 228.022 25.4185C 227.275 24.5884 226.902 23.5508 226.902 22.3057ZM 260.312 56.1313C 260.312 52.894 260.783 49.8919 261.724 47.125C 262.664 44.3304 264.006 41.9093 265.75 39.8618C 267.52 37.8143 269.665 36.2095 272.183 35.0474C 274.701 33.8576 277.537 33.2627 280.691 33.2627C 283.873 33.2627 286.723 33.8576 289.241 35.0474C 291.786 36.2095 293.931 37.8143 295.674 39.8618C 297.445 41.9093 298.8 44.3304 299.741 47.125C 300.682 49.8919 301.152 52.894 301.152 56.1313L 301.152 57.0444C 301.152 60.2817 300.682 63.2839 299.741 66.0508C 298.8 68.8177 297.445 71.2249 295.674 73.2725C 293.931 75.32 291.8 76.9248 289.282 78.0869C 286.764 79.249 283.928 79.8301 280.774 79.8301C 277.592 79.8301 274.728 79.249 272.183 78.0869C 269.665 76.9248 267.52 75.32 265.75 73.2725C 264.006 71.2249 262.664 68.8177 261.724 66.0508C 260.783 63.2839 260.312 60.2817 260.312 57.0444L 260.312 56.1313ZM 267.991 57.0444C 267.991 59.258 268.254 61.3747 268.779 63.3945C 269.305 65.3867 270.094 67.1437 271.145 68.6655C 272.224 70.1873 273.566 71.391 275.171 72.2764C 276.776 73.1618 278.643 73.6045 280.774 73.6045C 282.877 73.6045 284.717 73.1618 286.294 72.2764C 287.899 71.391 289.227 70.1873 290.278 68.6655C 291.357 67.1437 292.16 65.3867 292.686 63.3945C 293.211 61.3747 293.474 59.258 293.474 57.0444L 293.474 56.1313C 293.474 53.9455 293.197 51.8564 292.644 49.8643C 292.118 47.8444 291.316 46.0736 290.237 44.5518C 289.185 43.0299 287.857 41.8263 286.252 40.9409C 284.675 40.0278 282.821 39.5713 280.691 39.5713C 278.56 39.5713 276.707 40.0278 275.129 40.9409C 273.552 41.8263 272.224 43.0299 271.145 44.5518C 270.094 46.0736 269.305 47.8444 268.779 49.8643C 268.254 51.8564 267.991 53.9455 267.991 56.1313L 267.991 57.0444Z"/>
<path id="path4_fill" d="M 19.35 140.3C 13.35 140.3 10.35 138.7 10.35 135.5L 10.35 39.5C 10.35 36.3 13.35 34.7 19.35 34.7L 24.6 34.7C 30.6 34.7 33.6 36.3 33.6 39.5L 33.6 79.7L 34.2 79.85L 60.3 37.55C 61.4 35.65 64.4 34.7 69.3 34.7L 76.35 34.7C 81.95 34.7 84.75 35.45 84.75 36.95C 84.75 37.85 84.35 38.9 83.55 40.1L 54.6 84.5L 87.45 134.9C 88.25 136.1 88.65 137.15 88.65 138.05C 88.65 139.55 85.85 140.3 80.25 140.3L 71.55 140.3C 66.55 140.3 63.5 139.35 62.4 137.45L 34.2 91.85L 33.6 92L 33.6 135.5C 33.6 138.7 30.6 140.3 24.6 140.3L 19.35 140.3ZM 141.326 141.2C 125.826 141.2 113.926 136.6 105.626 127.4C 97.3258 118.1 93.1758 104.8 93.1758 87.5C 93.1758 70.2 97.3258 56.95 105.626 47.75C 113.926 38.45 125.826 33.8 141.326 33.8C 156.826 33.8 168.676 38.45 176.876 47.75C 185.176 56.95 189.326 70.2 189.326 87.5C 189.326 104.8 185.176 118.1 176.876 127.4C 168.676 136.6 156.826 141.2 141.326 141.2ZM 141.326 121.55C 149.326 121.55 155.376 118.65 159.476 112.85C 163.576 107.05 165.626 98.6 165.626 87.5C 165.626 76.4 163.576 68 159.476 62.3C 155.376 56.5 149.326 53.6 141.326 53.6C 133.326 53.6 127.226 56.5 123.026 62.3C 118.926 68 116.876 76.4 116.876 87.5C 116.876 98.6 118.926 107.05 123.026 112.85C 127.226 118.65 133.326 121.55 141.326 121.55ZM 234.693 141.2C 227.593 141.2 221.393 140.5 216.093 139.1C 210.793 137.7 206.643 135.9 203.643 133.7C 200.843 131.8 199.443 129.9 199.443 128C 199.443 126.5 199.993 124.7 201.093 122.6C 202.193 120.5 203.493 118.65 204.993 117.05C 206.493 115.45 207.743 114.65 208.743 114.65C 209.343 114.65 210.743 115.25 212.943 116.45C 216.143 118.05 219.043 119.3 221.643 120.2C 224.243 121.1 227.293 121.55 230.793 121.55C 234.693 121.55 237.993 120.8 240.693 119.3C 243.493 117.7 244.893 114.95 244.893 111.05C 244.893 107.85 243.593 105.35 240.993 103.55C 238.493 101.65 234.393 99.55 228.693 97.25L 221.793 94.25C 215.493 91.25 210.543 87.55 206.943 83.15C 203.343 78.65 201.543 72.3 201.543 64.1C 201.543 57.3 203.193 51.65 206.493 47.15C 209.893 42.55 214.293 39.2 219.693 37.1C 225.093 34.9 230.893 33.8 237.093 33.8C 242.193 33.8 246.793 34.35 250.893 35.45C 255.093 36.45 258.393 37.8 260.793 39.5C 262.993 41.1 264.093 42.7 264.093 44.3C 264.093 45.7 263.643 47.45 262.743 49.55C 261.843 51.65 260.743 53.5 259.443 55.1C 258.143 56.6 256.943 57.35 255.843 57.35C 255.343 57.35 254.493 57.1 253.293 56.6C 252.193 56.1 251.243 55.7 250.443 55.4C 246.843 54.2 243.093 53.6 239.193 53.6C 233.993 53.6 230.343 54.45 228.243 56.15C 226.243 57.85 225.243 59.8 225.243 62C 225.243 64.6 225.943 66.75 227.343 68.45C 228.743 70.15 230.443 71.55 232.443 72.65C 234.443 73.65 237.393 75 241.293 76.7C 246.993 79.1 251.643 81.4 255.243 83.6C 258.843 85.7 261.943 88.8 264.543 92.9C 267.243 96.9 268.593 102.05 268.593 108.35C 268.593 116.05 266.943 122.35 263.643 127.25C 260.443 132.15 256.293 135.7 251.193 137.9C 246.093 140.1 240.593 141.2 234.693 141.2Z"/>
</defs>
</svg>
